<svg data-name="Layer 1" xmlns="http://www.w3.org/2000/svg" width="830.9" height="469.3"><ellipse cx="505.7" cy="417.3" rx="294" ry="52" fill="#f0f0f0"/><path d="M779 317.8H228v-93.5h8.5v-69.7a62 62 0 0162-61.8h411.2a62 62 0 0161.8 61.8v69.7h7.5z" fill="#e4e4e4"/><path d="M794 420.8h-27.5v-.5a91.6 91.6 0 00-91.5-91.5H332a91.6 91.6 0 00-91.5 91.5v.5h-27.4a23.6 23.6 0 01-23.6-23.6v-153c-8-4.4-14.4-28.9-10.2-48.4 2.6-12.2 10.3-27 31.6-28 20.7-.8 36.2 18.7 37.5 37.4a40.5 40.5 0 01-8.1 27.6h.2v21.8a441 441 0 01134-21.8 410 410 0 01132 22c88.4-28.7 175.9-29.2 260-1.7v-20.3h.3a40.5 40.5 0 01-8.1-27.6c1.5-20.6 18.3-37.3 37.5-37.3 22.6 0 30.6 13.6 33.4 25 4.8 20.2-4 46.8-12 51.4v152.9a23.6 23.6 0 01-23.6 23.6z" fill="#cacaca"/><path fill="#f0f0f0" d="M170.7 274.3H2.7v14.5h3v131.5h17V288.8h129v131.5h17V288.8h2v-14.5z"/><path data-name="Path 164" d="M600.8 263s8.2-13.5 18.8-5.5 30.2 21.5 30.2 21.5 4 8.7-6.4 5.4-44.3-8.4-44.3-8.4z" fill="#9e616a"/><path data-name="Path 161" d="M560.3 279.9c-8.9 0-17-.9-23.5-2.9-7.6-2.4-12.5-6.2-14.3-11.5a13.5 13.5 0 012.1-13.4c11.4-14.8 50.8-19 56-19.4l10.8-20.3c.7-4.9-2.6-8.5 3-8.6l66.3-1c5.6 0 4 3.4 5 8l10 18.1-43.5 18.4 6.6 16-.4.3c-12.7 7.3-49.3 16.3-78.1 16.3z" fill="#2f2e41"/><path data-name="Path 162" d="M669.7 229.7s60.8-7 56.8 20.8-50.2 47.5-120.2 0l8-13.9s26-1.3 41.9-8.2z" fill="#2f2e41"/><path d="M664.1 89l-21.8-8.2-42.4-.5-18.2 8.7 5.1 29.4s-10.3 17.5 1 35l2.6 62.3s40.8 23.7 75.3-4.7l-7.8-58s13-26.9 3-36.9z" fill="#3f3d56"/><path data-name="Path 163" d="M653.2 256.3S646.4 242 635 249 602.8 267 602.8 267s-5 8.2 5.8 6 45-3.8 45-3.8z" fill="#9e616a"/><path d="M642.5 209H600a4 4 0 01-4-4l-1.9-55.8a4 4 0 014-4h46.4a4 4 0 014 4l-1.8 55.8a4 4 0 01-4 4z" fill="#fff"/><circle cx="621.2" cy="162.1" r="3.8" fill="#6c63ff"/><path d="M622.4 186.8a10.2 10.2 0 00-15.1-3.7l-20-12-10.2 10.3 28.3 16.6a10.2 10.2 0 0017-11.2z" fill="#9e616a"/><path d="M621.5 182.3a10.2 10.2 0 0115.5-.9l21.8-8.1 8.2 12-31 11.1a10.2 10.2 0 01-14.5-14.1z" fill="#9e616a"/><path d="M661.7 88.7s14.2-2.8 18 9.5 22.6 57.5 17 64-26.5 24.6-33 28.4-9.5 3.7-9.5 3.7l-8.5 3.8-2.8-21.7 9.7-5.7 14.8-12.2L659 133zM583.4 89.1s-14.2-2.8-18 9.5-22.6 57.5-17 64 26.5 24.6 33 28.4 9.5 3.7 9.5 3.7l8.5 3.8 2.8-21.7-9.7-5.7-14.8-12.2 13.7-33.5z" fill="#3f3d56"/><circle cx="622.8" cy="39.5" r="32.6" fill="#9e616a"/><path d="M655.2 15.7a20.8 20.8 0 00-10.9-10.5 19.9 19.9 0 00-14.9 0c-4.3-2.7-9-5-14.1-5.2s-10.4 1.6-13.5 5.7a22 22 0 01-2.3 3.1c-2.5 2.3-6.3 2-9.7 1.5l4.5 3.8-5.4 1.5 6.3 3.8c-6 3.6-8.9 11.6-8.1 18.9a40 40 0 008 18.8c1.5-3.4 1.2-7.4 1.2-11.1 0-4 .6-8.5 3.8-10.8 2.2-1.5 5-1.5 7.5-1.5a344.8 344.8 0 0139.1 2.4 11 11 0 015 1.5c3 2 3.5 6 3.8 9.5a69.2 69.2 0 002.2-17.9 33 33 0 00-2.5-13.5z" fill="#2f2e41"/><path data-name="Path 163" d="M398 326.1s5.8 13.6 16.6 7.7 30.8-15.7 30.8-15.7 4.8-7.4-5.2-5.8-42 1.7-42 1.7z" fill="#feb8b8"/><path d="M317 40.2a11.2 11.2 0 01.2 15.7 10.8 10.8 0 01-1.3 1.2L327 94.7l-19.1-6-7.8-34.8a11.2 11.2 0 011.4-13.6 10.8 10.8 0 0115.4 0z" fill="#ffb6b6"/><path fill="#feb8b8" d="M398.4 318.3l12-4.3-11-49.5-17.7 6.3 16.7 47.5z"/><path data-name="Path 163" d="M442.8 305.4s10.5 10.4 18.3.7 22.3-26.3 22.3-26.3 1.6-8.7-7-3.4-38 17.8-38 17.8z" fill="#feb8b8"/><path fill="#feb8b8" d="M440.1 298l9.5-8.5-29.2-41.5-14 12.6L440 298z"/><path d="M323.3 78.7l2.2 6.7 10 30a16 16 0 01-10 20.3 15.6 15.6 0 01-11.2-.5l-55.7-25.4a16.6 16.6 0 01-7.3-24.1 15.9 15.9 0 0121-5.4l38.6 22-4.3-20.9z" fill="#6c63ff"/><path d="M411 294.8l-19 8.8-38.8-75.7c-33.2 18.5-65.9 32.2-97.3 35a19.8 19.8 0 01-21.3-17.8l-.1-1.5c-.3-11.8 1.8-25.2 4.9-39.3l53.5.7 4.3 6.6 48.3-24.3a19.8 19.8 0 0126.5 9.1l.7 1.6z" fill="#2f2e41"/><path d="M435 267.6l-19 8.7-61.4-60.3c-33.2 18.5-65.9 32.2-97.3 35a19.8 19.8 0 01-21.3-17.8l-.1-1.5c-.3-11.8 1.8-25.2 4.9-39.3l56.6-14.8 1.2 22.1 48.2-24.3a19.8 19.8 0 0126.6 9.1l.7 1.6z" fill="#2f2e41"/><ellipse cx="435.7" cy="256.9" rx="25.6" ry="26.2" transform="rotate(-19.4 -286 688.6)" fill="#ffb6b6"/><path d="M293 72.5a2 2 0 001.6 2.3c.7-.1 19.3 4.3 19.4 3a2 2 0 00.8-1.3l8.3-54.3a2 2 0 00-.5-1.7c.2-1.4-18.8.3-19.6.1a2 2 0 00-1.8 1.7z" fill="#3f3d56"/><path d="M319.2 22.5s-16 1-15.9.8c-.4 0-1.4-.2-1.4.5l-7.7 47.7c-.6 1.2 17.3 3 17.6 3.3 1.5.3 7.4-51.2 8-51.7a.6.6 0 00-.5-.6zM278.1 75.1a7 7 0 00-.1-1.9 7 7 0 00-8.3-5.2l-11.6 2.7a6.9 6.9 0 00-5 8.3 7 7 0 002.4 4 31.4 31.4 0 00-17.7 29.6 222.2 222.2 0 002.7 80.7l58.2 6 4.7-47.2 1.7-7.3 1.3-3.2a56 56 0 004-18.3 41.8 41.8 0 00-1.6-13.3c-4-13.8-15.2-25-30.7-34.9z" fill="#6c63ff"/><path d="M310.4 123.3a56 56 0 01-4 18.3l-1.3 3.2-1.7 7.3c-17.8-5.6-43.9-43.1-43.9-43.1l14.8-8.7z" opacity=".2" style="isolation:isolate"/><path d="M297.3 55.6a11.2 11.2 0 008.7 13.1 10.8 10.8 0 001.8.2l11.9 37.4L332 90.6 319 57.5a11.2 11.2 0 00-8.8-10.5 10.7 10.7 0 00-12.8 8.6z" fill="#ffb6b6"/><path d="M313.3 92.9l18.5-3.7 12.1 36.7a16.2 16.2 0 01-2.9 15.5 15.5 15.5 0 01-18.2 4.2l-55.7-25.4a16.7 16.7 0 01-8.8-21.2 15.9 15.9 0 0121-9 16.3 16.3 0 011.5.7l38.6 22z" fill="#6c63ff"/><path d="M262.3 6.2a35 35 0 00-18.4 3.2l-13 4.7c-5.1 2-10.6 4-14 8.4s-4 11.8.5 15.2a35.4 35.4 0 00-34.6 6.4A33.4 33.4 0 00172 58.4c-2.3 6.2-2.1 13.2-.8 19.7s4 12.7 6.5 19c1.6 3.8 3.6 8.1 7.5 9.5 3.6 1.3 7.6-.5 10.4-3.2a30.8 30.8 0 007.7-18c1-6.7 1-13.6 3-20 1.8-6.5 5.8-12.7 12-15-2 7.6.3 16.8 6.8 21.3a20.7 20.7 0 0016.3 2.3c5.5-1.3 10.5-4 15.4-6.8 3.3-1.9 7-4.5 7-8.3 0-3.8-3.7-6.4-6-9.5-4.4-5.9-3-15.2 2.9-19.4l-.7-.4c5.6-1.1 11.8-4.1 13-9.8 1.4-6.3-4.5-12.4-10.7-13.6z" fill="#2f2e41"/><path d="M271.4 270.3a44.4 44.4 0 01-16.3-3.1 42.2 42.2 0 01-23.4-22.5L199.6 171a41.2 41.2 0 0123-54.6l.6-.2 65.5 150.6-.6.2a44.4 44.4 0 01-16.7 3.3zM739.5 263a36.3 36.3 0 01-14.1-2.8l-.5-.2 55.4-131.8.5.2a36.5 36.5 0 0119.5 47.8l-27.1 64.5a36.6 36.6 0 01-33.7 22.4z" fill="#3f3d56"/><path d="M0 222a1.5 1.5 0 01.7-1l52.7-34.8a4 4 0 01-1.8-1.6A4 4 0 0153 179l4.3-2.5a4 4 0 015.5 1.5 4 4 0 01.5 1.6l38.1-25.2a23 23 0 0114.3-13.1v-11.1h14v11a23 23 0 0116 22v3h-14a9 9 0 01-18 0h-14v-3a23.1 23.1 0 01.4-4.3L3.7 222.6l40 48.7h1c3.2 0 6.3 0 9.2.2a4 4 0 01-.2-1.5 4 4 0 014.2-3.8l5 .2a4 4 0 013.8 4.2 4 4 0 01-.6 1.8c8.9 1 14.6 2.2 14.6 2.9 0 1-15.4 0-34.6 0a1.5 1.5 0 01-2.6.5l-.3-.5c-19.2 0-34.5 1-34.5 0s13.6-3.5 31.2-4l-39.6-48A1.5 1.5 0 010 222zM135.8 271.7v-68.4c0-2 3.2-3.7 7-3.7s7 1.6 7 3.7v68.4c0 2-3 3.6-7 3.6s-7-1.6-7-3.6z" fill="#f0f0f0"/><path d="M119.1 271.7v-68.4c0-2 3.1-3.7 7-3.7s7 1.6 7 3.7v68.4c0 2-3.1 3.6-7 3.6s-7-1.6-7-3.6zM102.3 271.7v-68.4c0-2 3.2-3.7 7-3.7s7 1.6 7 3.7v68.4c0 2-3 3.6-7 3.6s-7-1.6-7-3.6z" fill="#f0f0f0"/></svg>